HIERARCHY
ROOT Hips
{
 OFFSET 0.000000 0.000000 0.000000
 CHANNELS 6 Xposition Yposition Zposition Yrotation Xrotation Zrotation
 JOINT Chest
 {
  OFFSET 0.000000 9.585900 0.002600
  CHANNELS 3 Yrotation Xrotation Zrotation
  JOINT Chest2
  {
   OFFSET 0.000000 9.601200 -0.005300
   CHANNELS 3 Yrotation Xrotation Zrotation
   JOINT Chest3
   {
    OFFSET 0.000000 9.561800 0.000000
    CHANNELS 3 Yrotation Xrotation Zrotation
    JOINT Chest4
    {
     OFFSET 0.000000 9.552100 0.000000
     CHANNELS 3 Yrotation Xrotation Zrotation
     JOINT Neck
     {
      OFFSET 0.000000 14.453000 0.000000
      CHANNELS 3 Yrotation Xrotation Zrotation
      JOINT Head
      {
       OFFSET 0.000000 8.936500 -0.011300
       CHANNELS 3 Yrotation Xrotation Zrotation
       End Site
       {
        OFFSET 0.000000 17.073600 -0.006000
       }
      }
     }
     JOINT RightCollar
     {
      OFFSET -2.921100 9.558500 0.000000
      CHANNELS 3 Yrotation Xrotation Zrotation
      JOINT RightShoulder
      {
       OFFSET -13.519700 0.000000 0.000000
       CHANNELS 3 Yrotation Xrotation Zrotation
       JOINT RightElbow
       {
        OFFSET 0.000000 -29.696600 0.000000
        CHANNELS 3 Yrotation Xrotation Zrotation
        JOINT RightWrist
        {
         OFFSET 0.000000 -24.004700 0.000000
         CHANNELS 3 Yrotation Xrotation Zrotation
         End Site
         {
          OFFSET 0.000000 -17.728500 0.000000
         }
        }
       }
      }
     }
     JOINT LeftCollar
     {
      OFFSET 2.921100 9.558500 0.000000
      CHANNELS 3 Yrotation Xrotation Zrotation
      JOINT LeftShoulder
      {
       OFFSET 13.519700 0.000000 0.000000
       CHANNELS 3 Yrotation Xrotation Zrotation
       JOINT LeftElbow
       {
        OFFSET 0.000000 -29.696600 0.000000
        CHANNELS 3 Yrotation Xrotation Zrotation
        JOINT LeftWrist
        {
         OFFSET 0.000000 -24.004700 0.000000
         CHANNELS 3 Yrotation Xrotation Zrotation
         End Site
         {
          OFFSET 0.000000 -17.728500 0.000000
         }
        }
       }
      }
     }
    }
   }
  }
 }
 JOINT RightHip
 {
  OFFSET -7.771700 -0.012900 -0.001300
  CHANNELS 3 Yrotation Xrotation Zrotation
  JOINT RightKnee
  {
   OFFSET 0.000000 -40.869800 0.001200
   CHANNELS 3 Yrotation Xrotation Zrotation
   JOINT RightAnkle
   {
    OFFSET 0.000000 -39.717900 0.002100
    CHANNELS 3 Yrotation Xrotation Zrotation
    JOINT RightToe
    {
     OFFSET 0.000000 -4.965400 11.033500
     CHANNELS 3 Yrotation Xrotation Zrotation
     End Site
     {
      OFFSET 0.000000 -1.423100 5.872300
     }
    }
   }
  }
 }
 JOINT LeftHip
 {
  OFFSET 7.771700 -0.012900 -0.001300
  CHANNELS 3 Yrotation Xrotation Zrotation
  JOINT LeftKnee
  {
   OFFSET 0.000000 -40.869800 0.001200
   CHANNELS 3 Yrotation Xrotation Zrotation
   JOINT LeftAnkle
   {
    OFFSET 0.000000 -39.717900 0.002100
    CHANNELS 3 Yrotation Xrotation Zrotation
    JOINT LeftToe
    {
     OFFSET 0.000000 -4.965400 11.033500
     CHANNELS 3 Yrotation Xrotation Zrotation
     End Site
     {
      OFFSET 0.000000 -1.423100 5.872300
     }
    }
   }
  }
 }
}
MOTION
Frames: 9
Frame Time: 0.008333
-95.954171 62.183511 18.680925 173.284258 -49.580383 -0.923176 4.886797 26.793865 1.119564 0.735679 4.574111 0.166515 1.177093 7.254801 0.292738 3.774540 21.730174 1.384883 -0.097138 14.829703 2.093533 -0.962160 -8.209901 3.956080 5.875031 4.104058 4.543256 -5.763996 -8.533616 -14.191254 -110.491775 -57.456521 147.277695 5.890468 -5.969871 -11.999429 -8.540034 1.495776 -0.455082 0.310531 -6.006123 16.039905 131.816620 -69.477588 -156.589151 4.868058 -5.673949 -1.405458 3.079138 -17.555315 -3.579170 -2.235518 60.118237 -5.647200 1.653708 -5.397594 9.861976 0.305070 -0.624993 0.134950 -3.535140 -13.732839 4.467903 29.930962 75.386801 32.347756 1.616481 -11.586075 -5.664985 0.323764 0.813397 0.142658
-95.955648 62.182881 18.681077 173.283043 -49.577046 -0.922751 4.890606 26.795576 1.121618 0.735905 4.574779 0.166736 1.175545 7.256107 0.293063 3.773926 21.731039 1.383377 -0.092804 14.814350 2.090666 -0.951629 -8.274270 3.937341 5.887171 4.093716 4.543523 -5.766179 -8.531368 -14.189240 -110.484067 -57.457580 147.268975 5.890442 -5.969442 -11.973389 -8.544649 1.480339 -0.449112 0.322515 -6.003204 16.036799 131.835411 -69.483481 -156.608904 4.877426 -5.674086 -1.405606 3.081363 -17.557755 -3.580115 -2.234475 60.116488 -5.645765 1.653577 -5.396987 9.865537 0.304128 -0.624593 0.132966 -3.534942 -13.736652 4.468189 29.935860 75.386100 32.351623 1.619597 -11.587142 -5.668760 0.318594 0.814233 0.145904
-95.955897 62.183361 18.680377 173.277659 -49.581294 -0.925765 4.898364 26.806226 1.131886 0.737206 4.579165 0.167984 1.175352 7.249931 0.291986 3.773272 21.731200 1.381891 -0.089883 14.792230 2.081730 -0.954368 -8.275851 3.940932 5.934259 4.071896 4.541152 -5.805514 -8.516982 -14.182630 -110.433679 -57.454523 147.257940 5.906090 -5.968112 -11.984258 -8.551804 1.465759 -0.442531 0.332503 -6.001275 16.028985 131.828571 -69.490280 -156.603812 4.873957 -5.670395 -1.398176 3.089342 -17.550534 -3.580202 -2.219538 60.113077 -5.622516 1.659236 -5.398224 9.868333 0.293983 -0.623728 0.128015 -3.532993 -13.731290 4.477868 29.951834 75.388499 32.369192 1.602323 -11.594608 -5.673513 0.331768 0.815177 0.149905
-95.956943 62.182960 18.680299 173.275293 -49.577536 -0.926654 4.905382 26.809765 1.142253 0.733532 4.572911 0.162750 1.176025 7.250393 0.292784 3.772977 21.731034 1.381360 -0.087403 14.777517 2.076680 -0.956053 -8.281392 3.939934 5.945223 4.064431 4.539446 -5.778732 -8.504814 -14.169265 -110.446406 -57.468505 147.263013 5.886336 -5.958162 -11.951746 -8.558277 1.452484 -0.436400 0.345842 -6.008674 16.029247 131.777343 -69.498853 -156.560246 4.861710 -5.669220 -1.399304 3.091581 -17.553323 -3.578683 -2.214750 60.111055 -5.619180 1.662627 -5.395906 9.873820 0.293333 -0.625291 0.126227 -3.532591 -13.734342 4.480484 29.959797 75.385719 32.378813 1.600473 -11.596031 -5.681119 0.333539 0.817100 0.155108
-95.958988 62.182615 18.680093 173.279124 -49.572912 -0.926322 4.901788 26.806252 1.139628 0.735275 4.574703 0.165682 1.174249 7.248817 0.290571 3.771968 21.730718 1.380631 -0.085488 14.760830 2.070005 -0.945757 -8.342131 3.913450 5.955971 4.058740 4.536882 -5.771038 -8.495337 -14.159802 -110.433560 -57.472370 147.264244 5.895061 -5.960838 -11.954596 -8.563471 1.439717 -0.431738 0.351959 -6.001116 16.026057 131.770497 -69.507439 -156.552024 4.858483 -5.671990 -1.403083 3.091217 -17.558146 -3.584277 -2.210434 60.112584 -5.614274 1.660257 -5.390882 9.875175 0.291384 -0.629139 0.126180 -3.534291 -13.738019 4.479395 29.948433 75.384822 32.367164 1.594115 -11.600406 -5.684591 0.344027 0.821527 0.159440
-95.960855 62.182279 18.680023 173.273189 -49.567233 -0.920135 4.906015 26.801509 1.140509 0.738640 4.573636 0.167757 1.171123 7.245616 0.288428 3.774946 21.724265 1.379791 -0.090333 14.752816 2.063908 -0.946696 -8.343760 3.912227 5.976407 4.057998 4.533276 -5.775154 -8.480015 -14.145079 -110.443129 -57.479552 147.267916 5.902817 -5.962900 -11.960271 -8.571397 1.443834 -0.429651 0.354978 -5.999448 16.026570 131.778814 -69.509925 -156.556069 4.859258 -5.666813 -1.404600 3.099452 -17.566314 -3.589435 -2.212649 60.115127 -5.614068 1.668721 -5.380395 9.874759 0.290408 -0.634918 0.128981 -3.529835 -13.741570 4.480383 29.933541 75.383558 32.351780 1.586607 -11.606327 -5.685411 0.362740 0.826392 0.161532
-95.962988 62.182422 18.679704 173.267169 -49.564016 -0.912803 4.912095 26.801346 1.142203 0.738635 4.569572 0.165950 1.170218 7.245496 0.289117 3.771965 21.724654 1.378009 -0.090947 14.744548 2.060091 -0.948482 -8.354566 3.908384 5.998623 4.043737 4.529918 -5.779212 -8.462467 -14.134973 -110.405608 -57.485230 147.253647 5.917223 -5.964033 -11.967262 -8.573539 1.439599 -0.427448 0.364834 -6.009775 16.031502 131.777442 -69.523098 -156.559120 4.876261 -5.667990 -1.404041 3.105157 -17.569085 -3.594128 -2.217536 60.113820 -5.619125 1.674609 -5.375995 9.878440 0.288855 -0.636475 0.127586 -3.526763 -13.742182 4.477730 29.943462 75.380920 32.356073 1.591424 -11.615572 -5.683004 0.360745 0.830883 0.159654
-95.966362 62.181352 18.680483 173.270424 -49.550183 -0.906681 4.908005 26.789126 1.132892 0.740053 4.565207 0.168521 1.173697 7.236332 0.288927 3.767940 21.729181 1.374192 -0.093654 14.742464 2.060401 -0.950990 -8.387650 3.896662 6.023812 4.041097 4.534399 -5.801714 -8.453567 -14.130359 -110.351268 -57.487482 147.234671 5.902580 -5.955634 -11.929592 -8.584032 1.436101 -0.421695 0.373264 -6.002139 16.030097 131.771716 -69.529039 -156.553596 4.877479 -5.670201 -1.402743 3.106609 -17.583042 -3.606133 -2.218548 60.113996 -5.619675 1.673544 -5.373641 9.881264 0.291635 -0.637009 0.126347 -3.528932 -13.756388 4.469791 29.941731 75.377162 32.350117 1.592505 -11.616059 -5.683921 0.367516 0.834959 0.162649
-95.969377 62.181186 18.680748 173.275585 -49.542705 -0.904473 4.907007 26.781364 1.131971 0.738624 4.559889 0.167941 1.171428 7.237859 0.287514 3.770245 21.721692 1.375284 -0.096582 14.730605 2.054570 -0.953806 -8.458957 3.872847 6.047781 4.040755 4.534231 -5.800510 -8.437463 -14.120674 -110.335486 -57.498857 147.222769 5.913048 -5.956049 -11.930930 -8.593223 1.434762 -0.422018 0.379083 -5.994286 16.028138 131.763090 -69.537604 -156.545509 4.879287 -5.666753 -1.409676 3.105569 -17.589505 -3.615062 -2.217521 60.113481 -5.618642 1.673606 -5.372305 9.884382 0.287636 -0.634133 0.124535 -3.531561 -13.763744 4.463803 29.909055 75.377663 32.320251 1.586371 -11.614268 -5.684894 0.358000 0.833115 0.163089
